<svg width="1440" height="373" viewBox="0 0 1440 373" fill="none" xmlns="http://www.w3.org/2000/svg">
<path d="M967.492 33.0332L975.76 30.7437" stroke="#7C9A8A" stroke-width="2" stroke-miterlimit="10" stroke-linecap="round" stroke-linejoin="round"/>
<path d="M967.536 38.309L976.081 39.12" stroke="#7C9A8A" stroke-width="2" stroke-miterlimit="10" stroke-linecap="round" stroke-linejoin="round"/>
<path d="M964.364 47.3542L971.112 52.8493" stroke="#7C9A8A" stroke-width="2" stroke-miterlimit="10" stroke-linecap="round" stroke-linejoin="round"/>
<path d="M966.497 42.5214L974.665 45.2967" stroke="#7C9A8A" stroke-width="2" stroke-miterlimit="10" stroke-linecap="round" stroke-linejoin="round"/>
<path d="M950.018 27.8947L943.716 21.9318" stroke="#7C9A8A" stroke-width="2" stroke-miterlimit="10" stroke-linecap="round" stroke-linejoin="round"/>
<path d="M947.512 32.5119L939.571 29.1862" stroke="#7C9A8A" stroke-width="2" stroke-miterlimit="10" stroke-linecap="round" stroke-linejoin="round"/>
<path d="M946.109 42.0681L937.693 43.6508" stroke="#7C9A8A" stroke-width="2" stroke-miterlimit="10" stroke-linecap="round" stroke-linejoin="round"/>
<path d="M946.465 36.7764L937.987 35.3488" stroke="#7C9A8A" stroke-width="2" stroke-miterlimit="10" stroke-linecap="round" stroke-linejoin="round"/>
<path d="M948.158 302.974C956.218 303.91 962.933 303.001 963.158 300.943C963.382 298.885 957.03 296.457 948.971 295.521C940.911 294.585 934.196 295.494 933.972 297.552C933.747 299.61 940.099 302.037 948.158 302.974Z" fill="#D7CAA2"/>
<path d="M1035.79 311.764C1041.34 312.409 1045.96 311.794 1046.11 310.391C1046.27 308.987 1041.89 307.328 1036.34 306.683C1030.79 306.038 1026.17 306.653 1026.02 308.056C1025.87 309.459 1030.24 311.119 1035.79 311.764Z" fill="#D7CAA2"/>
<path d="M950.434 260.406C950.434 260.406 946.666 275.73 945.64 278.889C944.613 282.048 936.017 293.984 936.017 293.984C936.017 293.984 944.046 292.051 951.008 285.735C951.764 285.075 952.1 284.079 951.922 283.08C951.65 281.379 951.318 278.636 952.103 276.657C953.292 273.574 960.227 260.637 960.227 260.637L950.434 260.406Z" fill="#EEBD9B"/>
<path d="M950.924 285.767C951.679 285.109 952.015 284.114 951.838 283.116C951.742 282.416 951.609 281.538 951.533 280.668C949.848 282.021 946.429 284.663 943.813 286.194C942.415 287.006 941.895 286.543 941.768 285.609C939.102 289.719 936.018 294.01 936.018 294.01C936.018 294.01 943.976 292.074 950.924 285.767Z" fill="#404042"/>
<path d="M1021.99 262.628C1021.99 262.628 1030.6 275.9 1032.23 278.853C1033.79 281.799 1036.74 296.303 1036.74 296.303C1036.74 296.303 1040.72 289.059 1040.77 279.57C1040.76 278.59 1040.3 277.615 1039.44 277.111C1038 276.193 1035.84 274.501 1034.9 272.606C1033.45 269.616 1028.69 255.589 1028.69 255.589L1021.99 262.628Z" fill="#EEBD9B"/>
<path d="M1044.35 291.514C1044.34 290.533 1043.87 289.557 1043.01 289.052C1042.42 288.695 1041.73 288.154 1041 287.549C1040.82 289.717 1040.46 294.111 1039.85 297.093C1039.5 298.723 1038.75 298.75 1038.01 298.202C1039.21 303.009 1040.24 308.258 1040.24 308.258C1040.24 308.258 1044.3 300.956 1044.35 291.514Z" fill="#404042"/>
<path d="M1005.55 128.946C1012.94 129.814 1022.79 130.974 1022.79 130.974C1022.79 130.974 1030.05 161.512 1018.48 208.361C1018.48 208.361 1021.8 211.455 1020.19 212.128C1020.19 212.128 1033.57 238.727 1037.58 253.408C1037.58 253.408 1031.72 263.247 1023.24 266.219C1023.24 266.219 999.386 231.427 995.518 225.507C991.651 219.587 993.556 191.392 993.556 191.392L971.905 261.331C971.905 261.331 956.095 264.016 949.006 262.032C949.006 262.032 960.088 219.671 963.837 204.522C974.069 162.636 990.59 129.084 990.59 129.084L1005.55 128.946Z" fill="#7C4949"/>
<path d="M985.333 196.644C981.026 204.201 971.099 224.574 960.139 219.602C955.403 237.993 949.061 262.242 949.061 262.242C956.169 264.228 972.02 261.539 972.02 261.539L993.724 191.525L994.598 166C994.598 166 990.003 188.381 985.333 196.644Z" fill="#663D3D"/>
<path d="M1003.55 137.986C1012.21 137.344 1019.79 133.953 1023.23 132.186C1023.04 131.308 1022.97 130.844 1022.97 130.844C1022.97 130.844 1013.15 129.695 1005.79 128.834L990.889 128.916C990.889 128.916 989.653 131.396 987.692 135.846C991.025 137.091 996.616 138.487 1003.55 137.986Z" fill="#663D3D"/>
<path d="M1001.74 131.213L994.58 165.848L993.771 190.778" stroke="#462B2B" stroke-width="0.75" stroke-miterlimit="10" stroke-linecap="round" stroke-linejoin="round"/>
<path d="M1015.1 131.577C1015.1 131.577 1016.29 145.409 1025.14 153.24" stroke="#462B2B" stroke-width="0.75" stroke-miterlimit="10" stroke-linecap="round" stroke-linejoin="round"/>
<path d="M998.381 131.573C998.381 131.573 994.051 145.477 998.274 147.93" stroke="#462B2B" stroke-width="0.75" stroke-miterlimit="10" stroke-linecap="round" stroke-linejoin="round"/>
<path d="M992.559 128.968C992.559 128.968 989.997 138.915 984.814 142.451" stroke="#462B2B" stroke-width="0.75" stroke-miterlimit="10" stroke-linecap="round" stroke-linejoin="round"/>
<path d="M988.194 157.61L1009.18 159.402" stroke="#462B2B" stroke-width="0.75" stroke-miterlimit="10" stroke-linecap="round" stroke-linejoin="round"/>
<path d="M989.612 160.729L1003.75 162.341" stroke="#462B2B" stroke-width="0.75" stroke-miterlimit="10" stroke-linecap="round" stroke-linejoin="round"/>
<path d="M960.948 37.1919C960.948 37.1919 960.054 34.3839 959.568 35.1893C959.138 36.0013 959.07 36.6259 959.07 36.6259C959.07 36.6259 957.21 35.3719 957.243 36.1234C957.276 36.8748 957.089 37.543 957.089 37.543C957.089 37.543 955.692 36.2284 955.662 37.03C955.633 37.8316 955.903 38.496 955.903 38.496C955.903 38.496 954.517 37.0679 954.833 38.3701C955.148 39.6724 955.679 38.9872 955.651 40.8242C955.624 42.6611 954.838 46.7666 956.262 48.8894C956.262 48.8894 961.076 68.2027 962.827 70.9965C964.521 73.7836 982.864 92.9635 982.864 92.9635L990.524 79.6032L970.703 65.655C970.703 65.655 961.942 48.58 960.929 45.8155C959.859 43.0444 961.351 38.2168 960.948 37.1919Z" fill="#EEBD9B"/>
<path d="M982.706 92.9568L990.371 79.589L978.967 71.5734C978.925 75.6537 978.912 84.2252 979.575 89.7117C981.476 91.6614 982.706 92.9568 982.706 92.9568Z" fill="#CB9069"/>
<path d="M1027.43 123.892C1028.82 124.744 1025.01 127.911 1019.18 129.177L1016.49 121.916L1025.66 120.814L1027.43 123.892Z" fill="#508DA0"/>
<path d="M1021.11 122.033C1021.11 122.033 1021.15 127.417 1021.34 130.414C1021.52 133.411 1005.34 134.773 990.647 131.219L1021.11 122.033Z" fill="#CB9069"/>
<path d="M1000.87 72.7522C1000.87 72.7522 996.345 71.9907 995.08 66.8536C993.814 61.7165 997.311 53.0682 1002.66 53.6391C1008.05 50.0307 1009.84 50.9281 1011.74 52.2983C1013.58 53.6618 1015.51 56.8701 1018.62 55.5151C1021.72 54.1601 1027.18 52.1068 1030.04 56.2266C1032.89 60.4031 1033.33 59.9964 1036.42 60.3597C1039.57 60.7296 1044.51 62.3999 1047.3 67.6021C1050.04 72.7977 1057.99 68.2277 1060.43 77.7461C1060.43 77.7461 1058.2 82.6434 1053.39 83.9135C1048.59 85.1836 1049.91 85.5686 1046.1 88.676C1042.3 91.7833 1042.71 91.6031 1039.23 92.2259C1035.69 92.8987 1037.13 95.8777 1032.7 96.2749C1032.7 96.2749 1018.57 84.8665 1013.95 82.3168C1009.33 79.8237 1000.87 72.7522 1000.87 72.7522Z" fill="#CB2947"/>
<path d="M1004.67 82.5573C1004.67 82.5573 1002.18 81.3447 1000.58 81.3862C998.975 81.4278 998.206 81.6823 995.798 80.7667C993.389 79.851 988.407 76.9084 988.407 76.9084C988.407 76.9084 979.266 82.3848 981.283 93.2546L988.651 97.8572C988.651 97.8572 987.659 101.764 989.129 105.557C991.845 112.601 992.911 114.336 991.829 120.128C990.797 125.984 987.941 129.211 988.024 130.026C988.045 130.89 998.671 133.29 1010.64 128.549C1022.6 123.864 1023.91 121.776 1027.58 123.702C1027.58 123.702 1026.21 112.104 1026.96 108.341C1027.7 104.579 1036.93 94.6296 1036.93 94.6296C1036.93 94.6296 1038.07 92.4655 1039.22 87.6577C1040.37 82.8499 1040.02 69.7622 1035.08 70.5613C1033.28 70.8668 1029.65 73.8878 1027.72 74.9245C1025.78 75.9611 1022.66 79.5591 1022.66 79.5591L1004.67 82.5573Z" fill="#7AC3E0"/>
<path d="M1031.81 89.8011C1032.99 93.6209 1035.5 94.1462 1036.42 92.9897C1037.35 91.8331 1039.1 84.6203 1039.1 84.6203L1031.81 89.8011Z" fill="#508DA0"/>
<path d="M1011.51 56.4164C1011.51 56.4164 1013.06 58.3656 1016.91 59.1001C1020.75 59.8346 1023.41 57.3511 1026.33 57.6362C1029.26 57.8649 1028.4 61.5853 1032.07 62.8698C1035.74 64.1543 1041.9 63.5053 1044.5 68.8847" stroke="#E58D9F" stroke-width="0.75" stroke-miterlimit="10" stroke-linecap="round" stroke-linejoin="round"/>
<path d="M1010.05 58.3318C1010.05 58.3318 1012.73 61.8978 1016.52 62.6262C1020.36 63.3611 1023.02 60.8764 1025.94 61.1616C1028.88 61.3905 1028.02 65.1126 1031.69 66.3978C1035.36 67.683 1041.51 67.0337 1044.11 72.4157" stroke="#E58D9F" stroke-width="0.75" stroke-miterlimit="10" stroke-linecap="round" stroke-linejoin="round"/>
<path d="M959.725 40.6604C959.725 40.6604 957.545 38.1013 957.308 38.7068C957.014 39.3056 957.868 39.8664 958.102 40.8727C958.33 41.9357 957.622 44.7885 959.699 46.1841" stroke="#CB9069" stroke-width="0.75" stroke-miterlimit="10" stroke-linecap="round" stroke-linejoin="round"/>
<path d="M1002.55 59.5125C1002.55 59.5125 1000.54 61.7477 1000.32 63.7909C1000.1 65.8341 999.965 67.6002 998.571 67.8385C998.571 67.8385 999.343 72.2976 1000.02 73.9294C1000.7 75.5611 1001.53 77.9004 1004.82 76.9659L1006.51 80.9C1006.51 80.9 1002.75 81.9518 1001.31 82.0133C999.883 82.0748 997.308 88.4967 1005.59 89.4134C1013.87 90.3301 1018.83 83.9593 1022.77 79.7093C1022.77 79.7093 1019.22 80.3837 1016.51 79.031C1013.75 77.7284 1011.49 73.2674 1011.49 73.2674C1011.49 73.2674 1011.67 72.6563 1012.3 71.0633C1012.3 71.0633 1015.11 70.4164 1015.28 67.7356C1015.46 65.0548 1012.72 67.1472 1012.72 67.1472C1012.72 67.1472 1006.36 67.4905 1002.55 59.5125Z" fill="#EEBD9B"/>
<path d="M1002.83 83.7971C1002.83 83.7971 1006.88 83.6445 1007.77 84.3663" stroke="#CB9069" stroke-width="0.75" stroke-miterlimit="10" stroke-linecap="round" stroke-linejoin="round"/>
<path d="M1004.83 76.9805C1006.85 76.2413 1009.56 75.3548 1010.62 73.9862C1010.26 75.7811 1005.47 78.4342 1005.47 78.4342L1004.83 76.9805Z" fill="#CB9069"/>
<path d="M1000.62 69.8215L1005.47 69.2433C1005.47 69.2433 1005.94 72.7443 1004.52 73.2659C1001.97 74.172 1000.62 69.8215 1000.62 69.8215Z" fill="#FBF2D5"/>
<path d="M1003.66 65.4952C1003.66 65.4952 1004.39 64.5555 1005.8 65.7442" stroke="#AF7D5B" stroke-width="0.75" stroke-miterlimit="10" stroke-linecap="round" stroke-linejoin="round"/>
<path d="M1001.77 65.1725C1001.77 65.1725 1001.2 64.6501 1000.23 65.2205" stroke="#AF7D5B" stroke-width="0.75" stroke-miterlimit="10" stroke-linecap="round" stroke-linejoin="round"/>
<path d="M999.534 68.433L1000.04 68.4905" stroke="#CB9069" stroke-width="0.75" stroke-miterlimit="10" stroke-linecap="round" stroke-linejoin="round"/>
<path d="M1025.79 82.3348C1025.79 82.3348 1022.25 91.8188 1024.69 97.2286C1027.19 102.645 1031.77 99.3275 1031.77 99.3275" stroke="#508DA0" stroke-miterlimit="10"/>
<path d="M1020.73 92.8246C1020.73 92.8246 1021.5 100.901 1027.8 101.643" stroke="#508DA0" stroke-miterlimit="10"/>
<path d="M1019.71 100.089L1024.71 103.31" stroke="#508DA0" stroke-miterlimit="10"/>
<path d="M1045.49 63.3407C1045.49 63.3407 1036.98 68.5604 1034.52 70.6332C1032.13 72.6559 1031.23 80.9581 1031.41 86.1622C1031.65 91.3729 1032.56 91.4221 1032.56 91.4221C1032.56 91.4221 1042.57 83.4984 1048.28 78.8134C1053.99 74.1284 1059.12 69.5477 1057.97 61.1204C1056.83 52.6363 1047.71 31.2367 1047.71 31.2367C1047.71 31.2367 1046.91 24.8092 1045.5 24.125C1044.09 23.4408 1041.16 24.5943 1039.85 24.5556C1038.6 24.4665 1035.15 26.7678 1037.07 29.1238C1037.07 29.1238 1036.44 30.1446 1036.98 30.9568C1037.52 31.8258 1039.13 34.3192 1041.71 34.3333L1045.49 63.3407Z" fill="#EEBD9B"/>
<path d="M1054.01 62.734C1056.05 62.3976 1056.11 66.6071 1054.57 67.6351C1052.97 68.6565 1052.63 68.0984 1053.13 66.142C1053.58 64.122 1052.97 62.8989 1054.01 62.734Z" fill="#CB9069"/>
<path d="M1038.67 67.7873C1036.95 68.91 1035.4 69.9957 1034.58 70.7058C1032.18 72.7292 1031.28 81.0344 1031.46 86.2402C1031.7 91.4527 1032.61 91.5019 1032.61 91.5019C1032.61 91.5019 1034.93 89.6994 1037.94 87.2304C1033.75 85.2407 1035.89 74.4316 1038.67 67.7873Z" fill="#CB9069"/>
<path d="M1020.23 108.904C1020.23 108.904 1009.75 120.432 1006.5 122.005" stroke="#508DA0" stroke-miterlimit="10"/>
<path d="M1018.06 117.195L1003.73 126.993" stroke="#508DA0" stroke-miterlimit="10"/>
<path d="M1037.26 29.1865C1037.26 29.1865 1040.93 27.4347 1041.83 28.001C1042.73 28.624 1039.36 30.2955 1039.36 30.2955C1039.36 30.2955 1040.98 31.118 1041.13 32.399" stroke="#CB9069" stroke-width="0.75" stroke-miterlimit="10" stroke-linecap="round" stroke-linejoin="round"/>
<path d="M1010.1 208.644C1010.1 208.644 1008.28 214.88 1004.41 219.492" stroke="#462B2B" stroke-width="0.75" stroke-miterlimit="10" stroke-linecap="round" stroke-linejoin="round"/>
<path d="M1011.71 211.063C1011.65 211.575 1009.65 219.411 1009.65 219.411" stroke="#462B2B" stroke-width="0.75" stroke-miterlimit="10" stroke-linecap="round" stroke-linejoin="round"/>
<path d="M982.444 209.667L970.657 220.638" stroke="#462B2B" stroke-width="0.75" stroke-miterlimit="10" stroke-linecap="round" stroke-linejoin="round"/>
<path d="M980.051 214.323L976.654 220.372" stroke="#462B2B" stroke-width="0.75" stroke-miterlimit="10" stroke-linecap="round" stroke-linejoin="round"/>
<path d="M1037.31 253.414C1036.94 252.106 1036.52 250.734 1036.05 249.243C1033.72 252.416 1028.44 258.521 1020.63 262.775C1022.11 264.903 1022.99 266.214 1022.99 266.214C1031.46 263.245 1037.31 253.414 1037.31 253.414Z" fill="#B06565"/>
<path d="M950.039 258.552C949.445 260.881 949.061 262.321 949.061 262.321C956.126 264.291 971.882 261.624 971.882 261.624L973.108 257.656C961.068 259.615 953.726 259.155 950.039 258.552Z" fill="#B06565"/>
<path d="M1003.1 63.8703C1003.1 63.8703 1004.24 63.3739 1006.02 63.7544L1005.89 62.8238C1005.89 62.8238 1004.09 62.6128 1003.04 63.405L1003.1 63.8703Z" fill="#B2253F"/>
<path d="M1002.19 63.9522C1002.19 63.9522 1001.85 63.3977 999.284 64.0116L999.332 63.0448C999.332 63.0448 1001.31 62.6475 1002.24 63.5003L1002.19 63.9522Z" fill="#B2253F"/>
<path d="M1014.32 68.7947C1014.86 68.0529 1014.76 67.3518 1014.49 67.2052C1013.9 66.9052 1012.11 68.7067 1012.34 69.7115" stroke="#CB9069" stroke-width="0.75" stroke-miterlimit="10" stroke-linecap="round" stroke-linejoin="round"/>
<path d="M988.728 97.9859C989.663 93.5575 992.024 90.1588 992.024 90.1588C992.024 90.1588 990.44 88.9959 988.246 91.3802C986.887 92.8863 984.614 93.8827 983.072 94.448L988.728 97.9859Z" fill="#508DA0"/>
<path d="M901.93 299.356C915.073 300.882 925.988 299.719 926.311 296.759C926.634 293.8 916.242 290.163 903.099 288.637C889.957 287.112 879.042 288.274 878.719 291.234C878.396 294.194 888.788 297.831 901.93 299.356Z" fill="#D7CAA2"/>
<path d="M827.049 290.822C839.045 292.216 849.032 290.944 849.355 287.983C849.678 285.021 840.215 281.491 828.219 280.097C816.223 278.704 806.236 279.975 805.913 282.937C805.591 285.898 815.054 289.429 827.049 290.822Z" fill="#D7CAA2"/>
<path d="M847.166 260.076C847.166 260.076 837.553 268.885 836.713 270.855C835.874 272.824 836.015 277.323 836.015 277.323L829.315 277.626L821.909 269.17L824.516 266.661C824.516 266.661 834.303 257.298 835.843 252.538L847.166 260.076Z" fill="#BC6363"/>
<path d="M844.127 262.875C845.84 261.242 847.167 260.022 847.167 260.022L835.865 252.445C835.281 254.154 833.601 256.536 831.702 258.834C836.791 259.662 841.74 261.792 844.127 262.875Z" fill="#8F3D3D"/>
<path d="M909.577 266.385C909.577 266.385 905.465 280.198 906.769 282.361C908.129 284.53 911.702 287.305 916.38 289.865C921.059 292.425 920.594 294.093 913.282 293.233L889.831 290.473C888.987 290.374 888.517 289.457 888.884 288.696C889.979 286.471 892.069 282.411 893.769 279.855C896.16 276.174 897.06 264.165 897.06 264.165L909.577 266.385Z" fill="#BC6363"/>
<path d="M908.898 268.735C909.282 267.292 909.617 266.3 909.617 266.3L897.106 264.144C897.106 264.144 896.9 267.097 896.364 270.47C900.368 269.222 905.753 268.881 908.898 268.735Z" fill="#8F3D3D"/>
<path d="M909.651 121.959L911.458 132.701C911.458 132.701 922.818 163.324 922.367 198.656C921.917 233.988 911.414 267.275 911.414 267.275L889.152 264.656C889.152 264.656 890.893 256.46 892.422 253.936C893.95 251.411 894.053 237.787 895.673 234.411C897.294 231.034 899.007 215.183 899.007 215.183L892.578 183.299C892.578 183.299 889.154 207.062 884.952 218.477C880.745 229.95 847.865 262.733 847.865 262.733C847.865 262.733 842.23 259.941 831.291 250.254C831.291 250.254 834.985 244.59 838.07 243.514C841.154 242.438 843.009 231.61 847.811 228.895C852.614 226.18 855.392 211.03 860.476 208.348C860.476 208.348 863.791 144.93 868.33 130.389L909.651 121.959Z" fill="#749199"/>
<path d="M907.888 195.738C907.182 174.747 894.57 163.245 894.57 163.245L892.347 183.259L898.799 215.178C898.799 215.178 897.081 231.047 895.456 234.427C893.83 237.808 893.728 251.447 892.195 253.974C890.662 256.502 888.915 264.706 888.915 264.706L911.25 267.327C911.25 267.327 915.516 253.83 918.703 234.966C910.937 225.242 908.226 206.376 907.888 195.738Z" fill="#5C8187"/>
<path d="M909.751 121.842L868.611 130.296C867.991 132.342 867.38 135.363 866.757 139.013C882.75 140.548 903.432 131.867 910.808 128.38L909.751 121.842Z" fill="#5C8187"/>
<path d="M874.746 130.65C874.746 130.65 874.535 140.526 865.96 144.813" stroke="#AFDCC6" stroke-width="0.75" stroke-miterlimit="10" stroke-linecap="round" stroke-linejoin="round"/>
<path d="M877.47 129.646C877.47 129.646 877.782 143.667 865.601 147.529" stroke="#AFDCC6" stroke-width="0.75" stroke-miterlimit="10" stroke-linecap="round" stroke-linejoin="round"/>
<path d="M892.625 183.285C893.554 175.839 896.139 151.115 896.139 151.115L895.18 126.961" stroke="#AFDCC6" stroke-width="0.75" stroke-miterlimit="10" stroke-linecap="round" stroke-linejoin="round"/>
<path d="M898.411 126.922C898.411 126.922 899.057 135.817 899.205 139.235C899.352 142.653 895.927 145.539 895.927 145.539" stroke="#AFDCC6" stroke-width="0.75" stroke-miterlimit="10" stroke-linecap="round" stroke-linejoin="round"/>
<path d="M878.913 50.016C878.913 50.016 884.712 50.1241 885.027 45.6232C887.411 44.123 888.564 39.7782 883.651 38.8552C883.807 35.8291 881.678 33.9127 878.958 35.8903C875.235 33.9586 871.79 35.7934 871.103 38.9868C869.322 35.9625 863.707 40.4715 864.692 45.068C860.301 46.1596 859.875 51.6815 864.597 53.3286C863.138 57.8673 869.907 58.4916 869.907 58.4916L878.913 50.016Z" fill="#362F58"/>
<path d="M949.825 65.8993C949.825 65.8993 953.522 52.8127 955.087 49.9473C956.653 47.0819 959.381 43.4902 958.778 42.7288C958.176 41.9675 957.286 44.3945 956.252 43.9276C955.217 43.4607 958.131 38.6825 959.999 36.7158C961.811 34.7424 960.688 34.035 958.931 34.979C958.931 34.979 958.314 33.2953 956.414 35.0282C956.414 35.0282 956.768 33.8616 955.842 33.9827C954.916 34.1039 953.93 35.8292 953.93 35.8292C953.93 35.8292 954.408 34.0442 954.008 34.0546C953.607 34.065 951.562 35.0327 949.901 46.1726L939.462 59.847L949.825 65.8993Z" fill="#BC6363"/>
<path d="M942.874 55.1821L939.355 59.8185L949.798 65.9253C949.798 65.9253 951.001 61.6477 952.31 57.44C948.425 57.5569 944.981 56.2335 942.874 55.1821Z" fill="#8F3D3D"/>
<path d="M877.499 64.3629C877.499 64.3629 892.149 59.4849 900.042 60.758C907.934 62.0311 930.853 71.2725 930.853 71.2725L939.194 57.3279L952.648 65.6277C952.648 65.6277 941.786 98.6795 935.544 97.945C929.303 97.2105 909.241 89.4536 909.241 89.4536C909.241 89.4536 909.52 112.162 911.464 115.778C913.408 119.394 913.762 124.028 911.209 124.991C908.656 125.953 872.214 132.228 867.259 131.186C862.297 130.2 864.527 130.118 864.253 124.747C863.979 119.376 859.431 98.2315 859.431 98.2315L853.559 74.5775C853.609 74.6408 867.879 66.9624 877.499 64.3629Z" fill="#2F8C59"/>
<path d="M861.851 109.943L869.9 95.5184L876.784 102.924C877.141 103.31 877.584 103.42 878.102 103.366C878.564 103.305 879.001 102.955 879.162 102.515L884.438 90.5747L892.756 99.9845C893.113 100.371 893.606 100.543 894.074 100.426C894.536 100.366 894.973 100.016 895.14 99.5192L900.469 86.0362L909.407 96.5513C909.316 94.7625 909.319 93.1568 909.279 91.9476L901.154 82.3312C900.797 81.9451 900.304 81.7723 899.842 81.8327C899.324 81.8865 898.943 82.2433 898.72 82.7332L893.385 96.2729L885.167 86.9897C884.867 86.6102 884.373 86.4374 883.855 86.4912C883.393 86.5516 882.956 86.9018 882.739 87.335L877.401 99.3257L870.617 92.0466C870.31 91.7237 869.817 91.551 869.411 91.618C868.949 91.6783 868.581 91.9219 868.307 92.3485L860.899 105.587C861.27 106.893 861.561 108.418 861.851 109.943Z" fill="#E3CD3E"/>
<path d="M878.251 120.701C867.38 114.827 866.608 107.213 867.425 100.705C868.242 94.197 862.076 85.3739 862.076 85.3739L857.741 91.7551L859.411 98.441C859.411 98.441 863.96 119.593 864.234 124.966C864.508 130.339 862.283 130.364 867.24 131.407C870.922 132.128 891.833 128.903 903.506 126.831C896.438 126.344 886.808 125.326 878.251 120.701Z" fill="#1E633B"/>
<path d="M865.748 116.241C865.748 116.241 868.778 116.195 869.593 113.932C870.408 111.669 870.76 106.303 872.973 105.355C875.187 104.407 878.114 103.198 877.819 105.925C877.819 105.925 879.187 107.524 878.589 108.835C878.589 108.835 879.248 109.602 878.407 111.575C878.407 111.575 878.961 112.79 877.78 113.687C876.592 114.64 875.374 118.524 872.75 117.985L865.632 123.131L865.748 116.241Z" fill="#BC6363"/>
<path d="M870.311 111.1C870.075 112.224 869.851 113.234 869.602 113.954C868.785 116.218 865.75 116.265 865.75 116.265L865.633 123.161L870.467 119.698C870.07 115.966 870.311 111.1 870.311 111.1Z" fill="#8F3D3D"/>
<path d="M866.906 95.1443L861.019 105.682C861.013 105.739 861.057 105.859 861.051 105.916C861.083 106.15 861.165 106.448 861.197 106.682C861.191 106.738 861.235 106.859 861.229 106.916C861.311 107.213 861.337 107.504 861.419 107.802C861.413 107.859 861.413 107.859 861.463 107.922C861.539 108.277 861.615 108.631 861.691 108.985L861.685 109.042C861.761 109.397 861.837 109.751 861.907 110.162L867.588 99.9463C867.647 98.3409 867.367 96.6957 866.906 95.1443Z" fill="#B4A232"/>
<path d="M868.759 89.2431L862.282 101.553" stroke="#1E633B" stroke-miterlimit="10"/>
<path d="M877.726 69.8721C881.944 68.7626 883.125 66.2641 882.99 64.3561C882.963 63.5503 882.169 62.9982 881.458 63.2586C879.168 63.9068 877.633 64.4143 877.633 64.4143C875.468 64.9625 873.098 65.8304 870.721 66.755C870.066 67.0221 869.812 67.7948 870.144 68.4073C871.009 69.885 873.396 70.9683 877.726 69.8721Z" fill="#1E633B"/>
<path d="M917.083 81.9425C914.486 76.4759 908.444 77.0843 908.444 77.0843C908.881 79.8884 909.081 83.2955 909.282 89.3406C909.282 89.3406 924.522 95.2618 932.562 97.2395C932.609 93.1161 919.341 86.8532 917.083 81.9425Z" fill="#1E633B"/>
<path d="M913.568 73.3439C913.568 73.3439 912.724 83.7386 910.453 88.6636" stroke="#1E633B" stroke-miterlimit="10"/>
<path d="M907.868 71.7682L909.057 82.5098" stroke="#1E633B" stroke-miterlimit="10"/>
<path d="M930.855 71.113L926.721 78.1685" stroke="#1E633B" stroke-miterlimit="10"/>
<path d="M853.675 74.8463C862.442 69.7785 866.042 87.1761 863.034 97.5821C860.025 107.988 855.193 117.316 855.193 117.316L867.572 114.745L869.435 124.976C869.435 124.976 851.128 136.977 844.005 141.087C836.888 145.141 823.587 144.094 829 125.168C834.42 106.184 844.051 80.4462 853.675 74.8463Z" fill="#2F8C59"/>
<path d="M859.852 106.671C855.929 107.128 853.498 113.275 848.677 114.144C843.28 115.059 841.13 120.722 841.13 120.722L855.107 117.37C855.107 117.37 857.472 112.881 859.852 106.671Z" fill="#1E633B"/>
<path d="M841.13 120.804C841.13 120.804 838.606 123.038 837.11 125.796" stroke="#1E633B" stroke-miterlimit="10"/>
<path d="M860.518 75.8896C860.518 75.8896 868.226 85.3772 860.986 103.895" stroke="#1E633B" stroke-miterlimit="10"/>
<path d="M908.174 115.514C908.174 115.514 899.581 111.955 896.445 112.044" stroke="#1E633B" stroke-miterlimit="10"/>
<path d="M902.65 201.626L912.296 211.428" stroke="#AFDCC6" stroke-width="0.75" stroke-miterlimit="10" stroke-linecap="round" stroke-linejoin="round"/>
<path d="M903.474 213.31L914.218 218.05" stroke="#AFDCC6" stroke-width="0.75" stroke-miterlimit="10" stroke-linecap="round" stroke-linejoin="round"/>
<path d="M868.17 206.404C868.17 206.404 865.994 211.05 867.973 216.699" stroke="#AFDCC6" stroke-width="0.75" stroke-miterlimit="10" stroke-linecap="round" stroke-linejoin="round"/>
<path d="M864.352 213.695L866.931 219.406" stroke="#AFDCC6" stroke-width="0.75" stroke-miterlimit="10" stroke-linecap="round" stroke-linejoin="round"/>
<path d="M891.389 261.067L909.955 263.184" stroke="#AFDCC6" stroke-width="0.75" stroke-miterlimit="10" stroke-linecap="round" stroke-linejoin="round"/>
<path d="M834.967 249.216L848.665 259.365" stroke="#AFDCC6" stroke-width="0.75" stroke-miterlimit="10" stroke-linecap="round" stroke-linejoin="round"/>
<path d="M916.394 289.892C911.723 287.345 908.099 284.578 906.797 282.426C906.703 282.244 906.609 282.061 906.584 281.773C902.799 282.586 900.411 285.734 900.411 285.734L891.878 283.134C890.747 285.172 889.66 287.33 888.946 288.674C888.58 289.431 889.05 290.343 889.892 290.442L913.308 293.186C920.545 294.091 921.066 292.439 916.394 289.892Z" fill="#363542"/>
<path d="M823.988 267.19C823.988 267.19 828 271.676 829.179 274.452C830.365 277.172 832.901 274.775 835.98 275.252L838.736 282.4C838.736 282.4 844.593 285.612 844.558 286.984C844.53 288.299 836.647 286.455 834.286 286.177C831.926 285.9 827.649 280.179 824.863 279.106C822.076 278.032 817.248 274.254 818.467 271.931C819.686 269.609 823.988 267.19 823.988 267.19Z" fill="#363542"/>
<path d="M886.232 153.545L908.184 149.323" stroke="#AFDCC6" stroke-width="0.75" stroke-miterlimit="10" stroke-linecap="round" stroke-linejoin="round"/>
<path d="M907.133 152.652L886.71 154.88" stroke="#AFDCC6" stroke-width="0.75" stroke-miterlimit="10" stroke-linecap="round" stroke-linejoin="round"/>
<path d="M958.546 35.3946C958.546 35.3946 956.544 37.5201 955.822 40.4871" stroke="#8F3D3D" stroke-width="0.75" stroke-miterlimit="10" stroke-linecap="round" stroke-linejoin="round"/>
<path d="M955.928 35.4389C955.928 35.4389 954.398 37.3912 954.015 40.3997" stroke="#8F3D3D" stroke-width="0.75" stroke-miterlimit="10" stroke-linecap="round" stroke-linejoin="round"/>
<path d="M953.559 36.3197C953.559 36.3197 952.668 38.1749 952.307 40.438" stroke="#8F3D3D" stroke-width="0.75" stroke-miterlimit="10" stroke-linecap="round" stroke-linejoin="round"/>
<path d="M878.478 45.3313C878.478 45.3313 877.702 48.2885 873.052 48.0289C872.423 49.6229 869.891 50.3602 869.891 50.3602L870.655 53.8438C870.655 53.8438 869.645 52.6321 868.468 52.4361C867.354 52.1899 867.531 55.8344 870.335 56.2795L869.908 58.645L871.227 66.5077C871.328 67.1524 871.836 67.7298 872.5 67.923C874.165 68.349 877.426 68.7903 880.331 66.1986C880.774 65.7906 881.011 65.1857 880.965 64.5477L880.637 60.1951C880.637 60.1951 881.645 60.3713 882.518 59.1511C883.392 57.931 882.361 52.6904 882.361 52.6904L883.454 52.0714L881.051 48.9702C881.057 48.9134 880.027 46.8365 878.478 45.3313Z" fill="#BC6363"/>
<path d="M881.347 53.9985L875.445 54.9086C875.445 54.9086 877.99 57.1541 880.166 56.4937C881.588 55.9736 881.347 53.9985 881.347 53.9985Z" fill="#FBF2D5"/>
<path d="M881.412 51.8535L880.813 52.1271" stroke="#8F3D3D" stroke-width="0.75" stroke-miterlimit="10" stroke-linecap="round" stroke-linejoin="round"/>
<path d="M874.718 51.2534C874.718 51.2534 875.665 50.3924 877.119 50.6201" stroke="#8F3D3D" stroke-width="0.75" stroke-miterlimit="10" stroke-linecap="round" stroke-linejoin="round"/>
<path d="M880.261 50.2977C880.464 50.2175 880.497 49.8175 880.337 49.4042C880.176 48.9909 879.882 48.7209 879.68 48.8011C879.477 48.8813 879.444 49.2813 879.604 49.6946C879.765 50.1079 880.059 50.3779 880.261 50.2977Z" fill="#362F58"/>
<path d="M874.078 49.3358L876.877 49.2074" stroke="#362F58" stroke-width="0.75" stroke-miterlimit="10" stroke-linecap="round" stroke-linejoin="round"/>
<path d="M880.606 60.2013C878.365 60.3964 875.555 60.0662 873.08 58.2275C873.181 62.0225 876.177 61.6868 877.621 62.5443C879.065 63.4018 879.322 64.1772 880.914 64.1924L880.606 60.2013Z" fill="#8F3D3D"/>
<path d="M879.853 46.9483L878.811 48.1485" stroke="#362F58" stroke-width="0.75" stroke-miterlimit="10" stroke-linecap="round" stroke-linejoin="round"/>
<path d="M896.958 279.985C896.958 279.985 895.949 281.935 898.845 282.563" stroke="#8F3D3D" stroke-width="0.75" stroke-miterlimit="10" stroke-linecap="round" stroke-linejoin="round"/>
<path d="M830.218 267.188C830.218 267.188 828.174 269.137 830.322 271.52" stroke="#8F3D3D" stroke-width="0.75" stroke-miterlimit="10" stroke-linecap="round" stroke-linejoin="round"/>
<path d="M447.5 173.036C187.631 133.292 61.0062 162.54 -23.5307 195.08L-21.5565 436.464L1524.42 427.524L1522.16 117.103C1409.52 93.7006 1270.83 52.3717 1107.17 111.572C1029.28 139.746 933 165.456 766.5 187.5C691.469 188.367 590.128 194.849 447.5 173.036Z" fill="#F7F8FA"/>
</svg>
