<svg width="22" height="22" viewBox="0 0 22 22" fill="none" xmlns="http://www.w3.org/2000/svg">
<g clip-path="url(#clip0)">
<path d="M7.25016 20.1666C7.75642 20.1666 8.16683 19.7562 8.16683 19.2499C8.16683 18.7437 7.75642 18.3333 7.25016 18.3333C6.7439 18.3333 6.3335 18.7437 6.3335 19.2499C6.3335 19.7562 6.7439 20.1666 7.25016 20.1666Z" stroke="#0E0E2C" stroke-width="2" stroke-linecap="round" stroke-linejoin="round"/>
<path d="M17.3337 20.1666C17.8399 20.1666 18.2503 19.7562 18.2503 19.2499C18.2503 18.7437 17.8399 18.3333 17.3337 18.3333C16.8274 18.3333 16.417 18.7437 16.417 19.2499C16.417 19.7562 16.8274 20.1666 17.3337 20.1666Z" stroke="#0E0E2C" stroke-width="2" stroke-linecap="round" stroke-linejoin="round"/>
<path d="M-0.0830078 0.916626H3.58366L6.04032 13.1908C6.12415 13.6128 6.35374 13.9919 6.68891 14.2617C7.02408 14.5315 7.44346 14.6749 7.87366 14.6666H16.7837C17.2139 14.6749 17.6332 14.5315 17.9684 14.2617C18.3036 13.9919 18.5332 13.6128 18.617 13.1908L20.0837 5.49996H4.50033" fill="#EB5433" fill-opacity="0.5"/>
<path d="M-0.0830078 0.916626H3.58366L6.04032 13.1908C6.12415 13.6128 6.35374 13.9919 6.68891 14.2617C7.02408 14.5315 7.44346 14.6749 7.87366 14.6666H16.7837C17.2139 14.6749 17.6332 14.5315 17.9684 14.2617C18.3036 13.9919 18.5332 13.6128 18.617 13.1908L20.0837 5.49996H4.50033" stroke="#0E0E2C" stroke-width="1.5" stroke-linecap="round" stroke-linejoin="round"/>
</g>
<defs>
<clipPath id="clip0">
<rect width="22" height="22" fill="white"/>
</clipPath>
</defs>
</svg>
